<svg xmlns="http://www.w3.org/2000/svg" width="337.623" height="86.793" viewBox="0 0 337.623 86.793">
  <g id="Сгруппировать_102" data-name="Сгруппировать 102" transform="translate(-171.748 -166.031)">
    <path id="Контур_1" data-name="Контур 1" d="M215.945,166.031a41.476,41.476,0,0,1,10.146,81.69L231.1,229a25.457,25.457,0,1,0-33.737-15.21l-17.314,14.492a41.477,41.477,0,0,1,35.892-62.255Z" transform="translate(0.929)" fill="#0063af" fill-rule="evenodd"/>
    <path id="Контур_2" data-name="Контур 2" d="M230.847,190.267l-59.1,49.467c38.619,0,22.1,0,44.624,0Z" transform="translate(0 8.263)" fill="#0063af" fill-rule="evenodd"/>
    <path id="Контур_3" data-name="Контур 3" d="M267.686,201.061V182.976h9.157V178.5H252.73v4.48h9.125v18.085Zm33.4,0v-4.512H287.352v-4.843h12.189v-4.349H287.352v-4.381h13.176V178.5H281.521v22.565Zm37.225,0V178.5h-8.334l-7.115,17.294h-.133L315.715,178.5h-8.367v22.565h5.073V184.688h.133l6.753,16.373h6.324l6.721-16.373h.131v16.373Zm13.21,0V178.5h-5.831v22.565Zm31.625,0-6.719-8.433a7.632,7.632,0,0,0,3.03-1.219c1.778-1.219,2.6-2.965,2.6-5.633,0-2.5-.758-4.249-2.4-5.468-2.174-1.613-5.369-1.812-9.784-1.812H358.9v22.565h5.83V193.32h3.722c.528,0,1.087,0,1.614-.034l6.029,7.775Zm-7.017-15.12c0,2.7-1.778,3.261-6.16,3.261h-5.238v-6.391h5.173c3.854,0,6.225.2,6.225,3.13Zm25.53,15.12v-9.783L413.718,178.5h-7.445l-7.446,8.235h-.164l-7.544-8.235h-7.544l12.255,13.078v9.487Zm42.891-11.3c0-3.987-1.088-7.379-4.152-9.455-2.734-1.779-6.226-2.273-10.738-2.273-4.448,0-7.972.461-10.706,2.273-3.1,2.042-4.152,5.468-4.152,9.455,0,4.019,1.054,7.379,4.152,9.421,2.734,1.845,6.226,2.339,10.738,2.339,4.448,0,7.972-.493,10.706-2.305,3.064-2.076,4.152-5.436,4.152-9.455Zm-5.963.165c0,5.3-2.832,7.049-8.927,7.049-6.16,0-8.894-2.207-8.894-7.379,0-5.3,2.8-7.017,8.927-7.017,6.16,0,8.895,2.175,8.895,7.347Zm14.462-2.209c1.219-3.524,2.5-6.39,4.216-10.311h-4.546a96.785,96.785,0,0,0-5.238,10.311Zm29.318,13.342V196.35H468.007V178.5h-5.83v22.565ZM270.123,227.454c0-3.691-1.905-5.391-5.976-6.453-.612-.162-1.629-.358-2.754-.531-1.615-.264-3.426-.493-4.679-.823-1.086-.264-1.482-.791-1.482-1.746a1.558,1.558,0,0,1,1.416-1.712,20.214,20.214,0,0,1,3.558-.264,82.326,82.326,0,0,1,8.5.527v-4.677c-2.931-.2-5.665-.363-8.4-.363a17.076,17.076,0,0,0-7.049,1.12,6.1,6.1,0,0,0-3.559,6.029c0,4.251,2.537,5.832,8.335,6.787,1.714.3,3.623.559,4.908.889,1.12.33,1.517.857,1.517,1.879a1.6,1.6,0,0,1-1.45,1.844,26.811,26.811,0,0,1-4.678.33c-2.4,0-5.864-.264-8.565-.561v4.81c3.293.2,6.258.362,9.322.362a18.044,18.044,0,0,0,7.445-1.252c2.6-1.283,3.591-3.458,3.591-6.192Zm17.69,7.445c3.788,0,7.115-.362,9.718-2.372,2.273-1.746,2.734-4.315,2.734-8v-12.65h-5.733v12.452c0,1.877-.263,3.328-1.251,4.349-1.12,1.252-3.064,1.68-5.4,1.68-2.305,0-4.283-.495-5.4-1.712a6.418,6.418,0,0,1-1.318-4.547V211.872h-5.83v12.65c0,3.688.461,6.258,2.7,8,2.569,2.01,5.962,2.372,9.784,2.372Zm42.429-1.482V221.788H318.088V226h6.719v3.921a47.723,47.723,0,0,1-6.687.527c-5.041,0-6.884-2.274-6.884-7.182,0-5.3,2.7-7.214,9.058-7.214,2.6,0,6.194.165,8.994.363v-4.613c-3.36-.231-6.357-.4-9.356-.4-3.887,0-7.445.363-10.213,2.207-3.524,2.372-4.447,6.325-4.447,9.521,0,3.722.79,7.181,3.492,9.421,2.306,1.877,5.435,2.339,8.664,2.339a64.948,64.948,0,0,0,12.814-1.482Zm9.686-12.321c1.219-3.525,2.5-6.391,4.217-10.312H339.6A96.923,96.923,0,0,0,334.36,221.1Zm21.149,13.8c3.788,0,7.115-.362,9.718-2.372,2.273-1.746,2.734-4.315,2.734-8v-12.65H367.8v12.452c0,1.877-.263,3.328-1.251,4.349-1.121,1.252-3.064,1.68-5.4,1.68-2.306,0-4.283-.495-5.4-1.712-1.022-1.121-1.318-2.636-1.318-4.547V211.872h-5.83v12.65c0,3.688.461,6.258,2.7,8,2.569,2.01,5.963,2.372,9.785,2.372Zm43.648-.461L398,226a7.616,7.616,0,0,0,3.031-1.219c1.779-1.219,2.6-2.965,2.6-5.633,0-2.5-.758-4.249-2.4-5.468-2.174-1.613-5.37-1.812-9.785-1.812H380.479v22.565h5.83V226.7h3.722c.527,0,1.087,0,1.614-.032l6.029,7.773Zm-7.017-15.12c0,2.7-1.778,3.263-6.16,3.263H386.31v-6.391h5.172c3.854,0,6.226.2,6.226,3.128Zm24.049,15.12V216.352h9.157v-4.48H406.8v4.48h9.125v18.085Zm36.763,0h-6.556l-2.438-4.908H437.04l-2.371,4.908h-6.292l11.6-22.565h6.95l11.6,22.565Zm-11.036-9.191-4.15-8.465H443.2l-4.15,8.465Z" transform="translate(27.002 -7.849)" fill="#0063af" fill-rule="evenodd"/>
    <path id="Контур_4" data-name="Контур 4" d="M252.276,247.648a5.267,5.267,0,0,0,1.522,3.8,4.883,4.883,0,0,0,3.633,1.569,4.8,4.8,0,0,0,1.483-.236,5.761,5.761,0,0,0,1.192-.516,6.2,6.2,0,0,0,.881-.641,6.591,6.591,0,0,0,.552-.512c.086-.1.15-.178.193-.237l-1.071-.965-.347.421a3.99,3.99,0,0,1-1.175.861,3.59,3.59,0,0,1-1.708.43,3.427,3.427,0,0,1-2.569-1.152,4.213,4.213,0,0,1,0-5.644,3.426,3.426,0,0,1,2.569-1.151,3.817,3.817,0,0,1,1.991.583,3.665,3.665,0,0,1,.626.531,5.465,5.465,0,0,1,.373.418c.055.075.1.137.126.18l1.082-1.071-.452-.495a4.869,4.869,0,0,0-1.5-1.031,4.965,4.965,0,0,0-2.249-.519,4.888,4.888,0,0,0-3.626,1.569,5.245,5.245,0,0,0-1.529,3.8Zm10.528-3.757h3.65v8.919h1.5v-8.919h3.653v-1.4h-8.8v1.4Zm12.455,3.761a3.908,3.908,0,0,1,1.129-2.78,3.412,3.412,0,0,1,2.525-1.193,3.152,3.152,0,0,1,2.386,1.161,4.27,4.27,0,0,1,0,5.624,3.156,3.156,0,0,1-2.386,1.161,3.412,3.412,0,0,1-2.525-1.193,3.912,3.912,0,0,1-1.129-2.78Zm0,3.543.147.2a3.869,3.869,0,0,0,.469.459,5.814,5.814,0,0,0,.727.53,4.623,4.623,0,0,0,2.31.641,4.6,4.6,0,0,0,3.461-1.58,5.582,5.582,0,0,0,0-7.583,4.591,4.591,0,0,0-3.457-1.584,4.33,4.33,0,0,0-1.286.193,4.462,4.462,0,0,0-1.024.441,4.656,4.656,0,0,0-.738.562,5.539,5.539,0,0,0-.452.444c-.075.09-.125.154-.154.194v-1.616h-1.5v14.83h1.5v-6.128ZM288.8,246.9a3.948,3.948,0,0,0-2.235,1.033,2.854,2.854,0,0,0-.778,2.084,2.708,2.708,0,0,0,1.057,2.089,3.828,3.828,0,0,0,2.6.913,4.375,4.375,0,0,0,1.2-.168,3.723,3.723,0,0,0,1.605-.878,4.969,4.969,0,0,0,.4-.388c.058-.075.1-.131.129-.174v1.4h1.5v-6.559a3.825,3.825,0,0,0-1.157-2.833,3.99,3.99,0,0,0-2.923-1.143,4.64,4.64,0,0,0-1.36.2,4.42,4.42,0,0,0-1.075.465,6.1,6.1,0,0,0-.78.6,5.208,5.208,0,0,0-.484.461,2.5,2.5,0,0,0-.172.216l.963.963.327-.365a3.351,3.351,0,0,1,1.046-.763,3.291,3.291,0,0,1,1.535-.373,2.537,2.537,0,0,1,1.856.712,2.5,2.5,0,0,1,.724,1.86l-3.976.652Zm.641,4.723a2.462,2.462,0,0,1-1.58-.46,1.4,1.4,0,0,1-.574-1.146q.012-1.46,1.942-1.826l3.547-.652v.652a3.37,3.37,0,0,1-.939,2.475,3.219,3.219,0,0,1-2.4.957Zm11.7-3,3.013,4.188h1.826l-3.873-5.373,3.547-4.943h-1.826l-2.687,3.757-2.687-3.757h-1.826l3.549,4.943-3.873,5.373h1.834l3-4.188Zm15.157-.969a3.9,3.9,0,0,1-1.108,2.821,3.627,3.627,0,0,1-5.312-.009,4.137,4.137,0,0,1,0-5.635,3.64,3.64,0,0,1,5.312,0,3.912,3.912,0,0,1,1.108,2.823Zm-9.027,0a5.208,5.208,0,0,0,1.537,3.814,5.248,5.248,0,0,0,7.458,0,5.518,5.518,0,0,0,0-7.633,5.242,5.242,0,0,0-7.458,0,5.229,5.229,0,0,0-1.537,3.819Zm13.215-5.159v10.316h4.943a3.478,3.478,0,0,0,2.458-.809,2.854,2.854,0,0,0,.87-2.2,2.755,2.755,0,0,0-.186-1.039,2.31,2.31,0,0,0-.409-.709,2.387,2.387,0,0,0-.522-.429,3.05,3.05,0,0,0-.42-.227c-.083-.028-.143-.047-.186-.06l.326-.2a2.216,2.216,0,0,0,.645-.75,2.316,2.316,0,0,0,.322-1.2,2.458,2.458,0,0,0-.852-1.923,3.263,3.263,0,0,0-2.263-.763Zm4.943,5.476a1.888,1.888,0,0,1,1.354.452,1.94,1.94,0,0,1,0,2.54,1.882,1.882,0,0,1-1.354.452h-3.442V247.97Zm1.4-2.686c0,.931-.54,1.4-1.615,1.4h-3.225v-2.79h3.225c1.074,0,1.615.465,1.615,1.393ZM333.9,246.9a3.948,3.948,0,0,0-2.234,1.033,2.854,2.854,0,0,0-.778,2.084,2.709,2.709,0,0,0,1.057,2.089,3.827,3.827,0,0,0,2.6.913,4.382,4.382,0,0,0,1.2-.168,3.745,3.745,0,0,0,1.605-.878,5.223,5.223,0,0,0,.4-.388c.058-.075.1-.131.129-.174v1.4h1.5v-6.559a3.825,3.825,0,0,0-1.157-2.833,3.99,3.99,0,0,0-2.923-1.143,4.656,4.656,0,0,0-1.361.2,4.432,4.432,0,0,0-1.074.465,6.1,6.1,0,0,0-.78.6,5.2,5.2,0,0,0-.484.461,2.506,2.506,0,0,0-.172.216l.963.963.326-.365a3.344,3.344,0,0,1,1.047-.763,3.291,3.291,0,0,1,1.535-.373,2.539,2.539,0,0,1,1.856.712,2.5,2.5,0,0,1,.724,1.86l-3.977.652Zm.642,4.723a2.459,2.459,0,0,1-1.58-.46,1.4,1.4,0,0,1-.574-1.146q.012-1.46,1.942-1.826l3.547-.652v.652a3.37,3.37,0,0,1-.939,2.475,3.219,3.219,0,0,1-2.4.957Zm7.619-5.69a3.491,3.491,0,0,0,.233,1.311,3.192,3.192,0,0,0,.515.9,2.859,2.859,0,0,0,.645.544,3.905,3.905,0,0,0,.519.283,1.92,1.92,0,0,0,.237.079l-2.361,3.757h1.72l2.142-3.442h3.013v3.442h1.5V242.494h-4.4a3.8,3.8,0,0,0-2.722.982,3.24,3.24,0,0,0-1.043,2.461Zm6.663-2.045v4.079h-2.9a2.319,2.319,0,0,1-1.648-.566,1.913,1.913,0,0,1-.609-1.468,1.933,1.933,0,0,1,.616-1.475,2.314,2.314,0,0,1,1.641-.57Zm10.528,6.022,2.046-2.15,3.653,5.046h1.72l-4.406-6.128,3.976-4.188H364.51l-5.155,5.476v-5.476h-1.5v10.316h1.5v-2.9Zm17.621-2.261a3.9,3.9,0,0,1-1.108,2.821,3.627,3.627,0,0,1-5.311-.009,4.137,4.137,0,0,1,0-5.635,3.64,3.64,0,0,1,5.311,0,3.912,3.912,0,0,1,1.108,2.823Zm-9.027,0a5.208,5.208,0,0,0,1.537,3.814,5.248,5.248,0,0,0,7.458,0,5.517,5.517,0,0,0,0-7.633,5.242,5.242,0,0,0-7.458,0,5.229,5.229,0,0,0-1.537,3.819Zm22.241-2.473v7.63h1.5V242.494h-1.187l-4.082,5.155-4.085-5.155h-1.175v10.316h1.5v-7.63l3.759,4.734,3.767-4.734Zm12.353,7.63h1.507V242.494h-8.919v10.316h1.5v-8.9h5.911v8.9Zm7.2-5.907a3.957,3.957,0,0,0-2.235,1.033,2.859,2.859,0,0,0-.776,2.084,2.709,2.709,0,0,0,1.057,2.089,3.827,3.827,0,0,0,2.6.913,4.384,4.384,0,0,0,1.2-.168,4.019,4.019,0,0,0,.937-.385,3.975,3.975,0,0,0,.667-.493,4.74,4.74,0,0,0,.4-.388c.058-.075.1-.131.13-.174v1.4h1.5v-6.559a3.83,3.83,0,0,0-1.157-2.833,3.992,3.992,0,0,0-2.923-1.143,4.656,4.656,0,0,0-1.361.2,4.431,4.431,0,0,0-1.074.465,6.1,6.1,0,0,0-.78.6,5.025,5.025,0,0,0-.484.461,2.48,2.48,0,0,0-.172.216l.963.963.326-.365a3.351,3.351,0,0,1,1.046-.763,3.3,3.3,0,0,1,1.537-.373,2.539,2.539,0,0,1,1.856.712,2.5,2.5,0,0,1,.724,1.86l-3.977.652Zm.641,4.723a2.458,2.458,0,0,1-1.578-.46,1.4,1.4,0,0,1-.574-1.146q.012-1.46,1.942-1.826l3.547-.652v.652a3.375,3.375,0,0,1-.939,2.475,3.22,3.22,0,0,1-2.4.957Zm15.681,1.184h1.507V242.494h-1.507V246.9h-5.912v-4.409h-1.5v10.316h1.5V248.3h5.912v4.514Zm12.673-10.316-6.233,7.735v-7.735H431v10.316h1.282l6.233-7.733v7.733h1.511V242.494Zm4.076,3.442a3.492,3.492,0,0,0,.233,1.311,3.193,3.193,0,0,0,.515.9,2.86,2.86,0,0,0,.645.544,3.9,3.9,0,0,0,.519.283,1.925,1.925,0,0,0,.237.079l-2.361,3.757h1.72l2.142-3.442h3.013v3.442h1.5V242.494h-4.4a3.807,3.807,0,0,0-2.722.982,3.244,3.244,0,0,0-1.042,2.461Zm6.663-2.045v4.079h-2.9a2.318,2.318,0,0,1-1.647-.566,1.913,1.913,0,0,1-.609-1.468,1.933,1.933,0,0,1,.615-1.475,2.313,2.313,0,0,1,1.64-.57Z" transform="translate(27.456 -4.499)" fill="#0063af" fill-rule="evenodd"/>
  </g>
</svg>
