<svg width="108" height="43" viewBox="0 0 108 43" fill="none"
    xmlns="http://www.w3.org/2000/svg">
    <path fill-rule="evenodd" clip-rule="evenodd" d="M21.3584 42.1538C32.9351 42.1538 42.3169 32.8042 42.3169 21.2673C42.3169 9.71045 32.9351 0.36084 21.3584 0.358398C9.78918 0.358398 0.397461 9.71045 0.397461 21.2673C0.397461 32.8018 9.79175 42.1538 21.3584 42.1538ZM21.356 7.51819C22.1719 7.51819 22.9779 7.55042 23.7616 7.62231V18.7723H18.9602V7.62231C19.7439 7.55042 20.5499 7.51819 21.356 7.51819ZM29.5052 12.7733C31.3776 13.1056 33.1656 13.5669 34.8595 14.1199H34.8621V22.1874C34.8621 29.5951 28.8158 35.6464 21.3584 35.6464C13.9135 35.6464 7.86719 29.5951 7.86719 22.1874V14.1199C9.56104 13.5669 11.3491 13.108 13.2216 12.7733V22.1353C13.2216 28.876 16.0984 32.4174 21.3584 32.4174C26.6383 32.4174 29.5052 28.876 29.5052 22.1353V12.7733ZM98.5344 10.8789C99.2362 9.72571 100.642 8.96191 102.52 8.96191C105.687 8.96191 107.217 10.9731 107.224 13.4581V19.4275H104.266V13.8748C104.266 12.6893 103.594 11.6428 102.168 11.6428C100.742 11.6428 100.04 12.6497 100.04 13.8326V19.4275H97.0811V13.8326C97.0811 12.6497 96.3346 11.6428 94.8987 11.6428C93.4727 11.6428 92.8428 12.6919 92.8428 13.8748V19.4275H89.8842V13.4557C89.8842 10.9731 91.5085 8.96191 94.6656 8.96191C96.28 8.96191 97.8202 9.72571 98.5344 10.8789ZM74.6644 11.6552V9.16028H65.0668V11.6552H70.751L64.8362 16.9351V19.4301H75.0215V16.9351H68.7595L74.6644 11.6552ZM84.6687 14.537C84.6687 16.1713 83.7461 16.9252 82.3822 16.9252C81.0082 16.9252 80.1179 16.1713 80.1179 14.537V9.16028H77.1593V14.6411C77.1593 18.2148 80.1377 19.6185 82.3921 19.6185C84.6166 19.6185 87.6249 18.2148 87.6249 14.6411V9.16028H84.6663V14.537H84.6687ZM59.9381 14.537C59.9381 16.1713 59.0156 16.9252 57.6516 16.9252C56.2777 16.9252 55.3873 16.1713 55.3873 14.537V9.16028H52.4287V14.6411C52.4287 18.2148 55.4072 19.6185 57.6615 19.6185C59.8861 19.6185 62.8943 18.2148 62.8943 14.6411V9.16028H59.9357V14.537H59.9381ZM57.4309 34.9623C57.8848 35.1508 58.4452 35.245 59.1099 35.245C59.7744 35.245 60.4069 35.1284 61.0071 34.9052C61.6047 34.677 62.1281 34.3447 62.5743 33.9132C63.0233 33.4817 63.3779 32.9485 63.6433 32.3136C63.9087 31.6787 64.04 30.9546 64.04 30.1436C64.04 29.3326 63.9087 28.6085 63.6433 27.9736C63.3779 27.3387 63.0233 26.8055 62.5743 26.374C62.1281 25.9425 61.6047 25.6101 61.0071 25.382C60.4093 25.1514 59.777 25.0372 59.1123 25.0372C58.4601 25.0372 57.9095 25.1117 57.4631 25.2605C57.0143 25.4093 56.6422 25.5779 56.3422 25.7689C55.99 25.9846 55.7048 26.2227 55.4866 26.4806H55.365V20.9899H52.4337V35.2275H55.365V33.4543H55.5063C55.7097 33.7916 55.9825 34.0892 56.3223 34.3497C56.605 34.5704 56.9771 34.7738 57.4309 34.9623ZM60.2804 31.9292C59.7844 32.4028 59.09 32.641 58.1923 32.641C57.297 32.641 56.6025 32.4028 56.1066 31.9292C55.6106 31.4556 55.3625 30.8578 55.3625 30.1387C55.3625 29.3922 55.6205 28.7896 56.1364 28.3282C56.6521 27.8669 57.3367 27.6364 58.1923 27.6364C59.0875 27.6364 59.7844 27.8744 60.2804 28.348C60.7764 28.8218 61.0244 29.4194 61.0244 30.1387C61.0244 30.8578 60.7764 31.4556 60.2804 31.9292ZM80.1799 25.0547H83.1138V26.8799H83.2775C83.4535 26.5352 83.704 26.2301 84.0314 25.9673C84.3042 25.7416 84.6737 25.5308 85.1423 25.3324C85.6111 25.134 86.2113 25.0348 86.9453 25.0348C87.543 25.0348 88.1035 25.1191 88.6243 25.2853C89.1451 25.4514 89.6014 25.7144 89.9883 26.074C90.3752 26.4335 90.6777 26.8873 90.896 27.433C91.1117 27.9785 91.2208 28.6307 91.2208 29.3896V35.2251H88.287V30.218C88.287 29.3451 88.049 28.6953 87.5753 28.2712C87.0991 27.8472 86.4741 27.6364 85.7004 27.6364C84.8448 27.6364 84.2 27.8794 83.766 28.3605C83.332 28.8441 83.1138 29.4641 83.1138 30.218V35.2227H80.1799V25.0547ZM96.5975 20.9874H93.6637V35.2251H96.5975V30.2428L101.161 35.2251H104.623L99.8984 29.9973L104.256 25.0547H100.813L96.5975 29.8137V20.9874ZM77.3156 31.6886V24.7942H74.2825L74.3048 26.4707C73.6451 25.4862 72.4845 24.5884 70.426 24.5884C66.8846 24.5884 65.0643 27.3387 65.0643 30.0964C64.9999 32.8889 67.0582 35.6691 70.2748 35.6691C71.9761 35.6691 73.536 34.9126 74.2825 33.5809C74.5851 34.4587 75.3439 35.421 76.9261 35.421H78.682V32.8444H78.1935C77.5759 32.8444 77.3156 32.6187 77.3156 31.6886ZM71.0659 33.0079C69.3225 33.0079 68.0229 31.8076 68.0229 30.1188C68.0229 28.4523 69.3225 27.2717 71.0659 27.2717C72.8639 27.2717 74.1635 28.4523 74.1635 30.1188C74.1635 31.8052 72.8639 33.0079 71.0659 33.0079Z" fill="#7000FF"/>
</svg>
